# AST/ASF file generated using VICON BodyLanguage
# -----------------------------------------------
:version 1.10
:name VICON
:units
  mass 1.0
  length 0.45
  angle deg
:documentation
   .ast/.asf automatically generated from VICON data using
   VICON BodyBuilder and BodyLanguage model FoxedUp or BRILLIANT.MOD
:root
   order TX TY TZ RX RY RZ
   axis XYZ
   position 0 0 0  
   orientation 0 0 0 
:bonedata
  begin
     id 1 
     name lhipjoint
     direction 0.537252 -0.787203 0.302774 
     length 2.29576 
     axis 0 0 0  XYZ
  end
  begin
     id 2 
     name lfemur
     direction 0.34202 -0.939693 0  
     length 7.31114  
     axis 0 0 20  XYZ
    dof rx ry rz
    limits (-160.0 20.0)
           (-70.0 70.0)
           (-60.0 70.0)
  end
  begin
     id 3 
     name ltibia
     direction 0.34202 -0.939693 0   
     length 8.36008   
     axis 0 0 20   XYZ
    dof rx
    limits (-10.0 170.0)
  end
  begin
     id 4 
     name lfoot
     direction 0.0969116 -0.266263 0.959016   
     length 2.16704   
     axis -90 7.62852e-016 20   XYZ
    dof rx rz
    limits (-45.0 90.0)
           (-70.0 20.0)
  end
  begin
     id 5 
     name ltoes
     direction 1.53563e-011 -4.21779e-011 1   
     length 1.08338   
     axis -90 7.62852e-016 20   XYZ
    dof rx
    limits (-90.0 20.0)
  end
  begin
     id 6 
     name rhipjoint
     direction -0.588228 -0.754791 0.290308   
     length 2.39434  
     axis 0 0 0  XYZ 
  end
  begin
     id 7 
     name rfemur
     direction -0.34202 -0.939693 0   
     length 7.45207   
     axis 0 0 -20   XYZ
    dof rx ry rz
    limits (-160.0 20.0)
           (-70.0 70.0)
           (-70.0 60.0)
  end
  begin
     id 8 
     name rtibia
     direction -0.34202 -0.939693 0   
     length 8.03565   
     axis 0 0 -20   XYZ
    dof rx
    limits (-10.0 170.0)
 end
 begin
     id 9 
     name rfoot
     direction -0.107009 -0.294004 0.949795   
     length 2.11509  
     axis -90 -7.62852e-016 -20   XYZ
    dof rx rz
    limits (-45.0 90.0)
           (-20.0 70.0)
  end
  begin
     id 10 
     name rtoes
     direction -1.53533e-011 -4.22004e-011 1   
     length 1.05493   
     axis -90 -7.62852e-016 -20   XYZ
    dof rx
    limits (-90.0 20.0)
  end
  begin
     id 11 
     name lowerback
     direction -0.0115208 0.997969 -0.0626515   
     length 2.03153   
     axis 0 0 0   XYZ
    dof rx ry rz
    limits (-20.0 45.0)
           (-30.0 30.0)
           (-30.0 30.0)
  end
  begin
     id 12 
     name upperback
     direction -0.00423475 0.999974 -0.00583614   
     length 2.03619   
     axis 0 0 0   XYZ
    dof rx ry rz
    limits (-20.0 45.0)
           (-30.0 30.0)
           (-30.0 30.0)
  end
  begin
     id 13 
     name thorax
     direction 0.00289429 0.999728 0.0231573   
     length 2.03921   
     axis 0 0 0   XYZ
    dof rx ry rz
    limits (-20.0 45.0)
           (-30.0 30.0)
           (-30.0 30.0)
  end
  begin
     id 14 
     name lowerneck
     direction 0.0188995 0.987777 0.154721   
     length 1.78836   
     axis 0 0 0   XYZ
    dof rx ry rz
    limits (-20.0 45.0)
           (-30.0 30.0)
           (-30.0 30.0)
  end
  begin
     id 15 
     name upperneck
     direction -0.00612612 0.992995 -0.118   
     length 1.81789   
     axis 0 0 0   XYZ
    dof rx ry rz
    limits (-20.0 45.0)
           (-30.0 30.0)
           (-30.0 30.0)
  end
  begin
     id 16
     name head
     direction -0.00420226 0.998397 -0.0564482  
     length 1.82234  
     axis 0 0 0   XYZ
    dof rx ry rz
    limits (-20.0 45.0)
           (-30.0 30.0)
           (-30.0 30.0)
  end
  begin
     id 17 
     name lclavicle
     direction 0.916488 0.396539 0.0529676  
     length 3.51732  
     axis 0 0 0   XYZ
    dof ry rz
    limits (-20.0 10.0)
           (0.0 20.0)
  end
  begin
     id 18 
     name lhumerus
     direction 1 -4.4896e-011 8.36962e-028   
     length 5.45077   
     axis 180 -30 -90   XYZ
    dof rx ry rz
    limits (-60.0 90.0)
           (-90.0 90.0)
           (-90.0 90.0)
  end
  begin
     id 19
     name lradius
     direction 1 -4.48962e-011 3.01407e-027   
     length 3.05488   
     axis 180 -30 -90   XYZ
    dof rx
    limits (-10.0 170.0)
  end
  begin
     id 20
     name lwrist
     direction 1 -4.49002e-011 4.72961e-027   
     length 1.52744   
     axis -2.72261e-015 90 90   XYZ
    dof ry
    limits (-180.0 0.0)
 end
  begin
     id 21 
     name lhand
     direction 1 -4.4899e-011 9.45681e-027   
     length 0.638818   
     axis -6.0311e-015 90 90   XYZ
    dof rx rz
    limits (-90.0 90.0)
           (-45.0 45.0)
  end
  begin
     id 22 
     name lfingers
     direction 1 -4.48871e-011 1.88632e-026   
     length 0.515032   
     axis -1.20625e-014 90 90   XYZ
    dof rx
    limits (0.0 90.0)
  end
  begin
     id 23
     name lthumb
     direction 0.707107 -6.34964e-011 0.707107   
     length 0.739485   
     axis -90 45 6.32835e-014   XYZ
    dof rx rz
    limits (-45.0 45.0)
           (-45.0 45.0)
  end
  begin
     id 24 
     name rclavicle
     direction -0.949427 0.303202 0.0815894   
     length 3.76167  
     axis 0 0 0   XYZ 
    dof ry rz
    limits (-10.0 20.0)
           (-20.0 0.0)
  end
  begin
     id 25 
     name rhumerus
     direction -1 -4.48971e-011 -6.43969e-018  
     length 4.88702   
     axis 180 30 90   XYZ
    dof rx ry rz
    limits (-90.0 60.0)
           (-90.0 90.0)
           (-90.0 90.0)
  end
  begin
     id 26 
     name rradius
     direction -1 -4.48987e-011 5.46662e-027   
     length 3.22603   
     axis 180 30 90   XYZ
    dof rx
    limits (-10.0 170.0)
  end
  begin
     id 27 
     name rwrist
     direction -1 -4.48956e-011 4.72476e-027   
     length 1.61302   
     axis -2.72261e-015 -90 -90   XYZ
    dof ry
    limits (-180.0 0.0)
  end
  begin
     id 28
     name rhand
     direction -1 -4.4889e-011 9.43571e-027   
     length 0.716293   
     axis -6.0311e-015 -90 -90   XYZ
    dof rx rz
    limits (-90.0 90.0)
           (-45.0 45.0)
  end
  begin
     id 29
     name rfingers
     direction -1 -4.48887e-011 1.88701e-026   
     length 0.577494   
     axis -1.20625e-014 -90 -90   XYZ
    dof rx
    limits (0.0 90.0)
  end
  begin
     id 30
     name rthumb
     direction -0.707107 -6.34825e-011 0.707107   
     length 0.829169   
     axis -90 -45 -6.32835e-014   XYZ
    dof rx rz
    limits (-45.0 45.0)
           (-45.0 45.0)
  end
:hierarchy
  begin
    root lhipjoint rhipjoint lowerback
    lhipjoint lfemur
    lfemur ltibia
    ltibia lfoot
    lfoot ltoes
    rhipjoint rfemur
    rfemur rtibia
    rtibia rfoot
    rfoot rtoes
    lowerback upperback
    upperback thorax
    thorax lowerneck lclavicle rclavicle
    lowerneck upperneck
    upperneck head
    lclavicle lhumerus
    lhumerus lradius
    lradius lwrist
    lwrist lhand lthumb
    lhand lfingers
    rclavicle rhumerus
    rhumerus rradius
    rradius rwrist
    rwrist rhand rthumb
    rhand rfingers
  end

#!OML:ASF F:\VICON\USERDATA\INSTALL\rory3\rory3.ASF
:FULLY-SPECIFIED
:DEGREES
349
root -0.941748 14.7807 0.461411 216.939 68.3767 173.705
lowerback 35.8642 0.548729 -5.87938
upperback 8.74542 -0.45447 -4.13323
thorax -8.11215 0.413922 -1.21084
lowerneck -21.3411 6.16975 4.34681
upperneck 6.24788 8.93716 -13.2454
head 6.19574 3.52645 -3.91472
rclavicle 9.93923e-015 4.48259e-014
rhumerus 56.7403 11.6418 -72.6633
rradius 41.5268
rwrist -48.6783
rhand -2.12526 3.60731
rfingers 7.12502
rthumb 23.5532 -24.9705
lclavicle 9.93923e-015 4.48259e-014
lhumerus 34.7527 -5.01267 57.319
lradius 57.92
lwrist 77.717
lhand 2.21985 32.8652
lfingers 7.12502
lthumb 27.7148 60.8427
rfemur -103.166 -27.879 42.5578
rtibia 84.692
rfoot -21.0468 13.021
rtoes -15.4272
lfemur -101.012 8.9832 -34.077
ltibia 79.6419
lfoot -15.8679 -22.0441
ltoes 2.09315
350
root -0.958515 14.8598 0.450902 216.983 68.6199 173.907
lowerback 35.438 0.518084 -5.73859
upperback 8.70759 -0.439153 -4.14833
thorax -8.00693 0.408263 -1.29801
lowerneck -21.3465 6.25825 4.629
upperneck 6.49905 9.01156 -13.3331
head 6.30111 3.54796 -3.97876
rclavicle 4.69132e-014 7.06679e-014
rhumerus 55.7941 11.6493 -72.816
rradius 41.9283
rwrist -48.7186
rhand -2.21542 3.87191
rfingers 7.12502
rthumb 23.4668 -24.7169
lclavicle 4.69132e-014 7.06679e-014
lhumerus 34.3106 -5.63014 57.1129
lradius 58.1708
lwrist 77.5421
lhand 2.2263 32.8595
lfingers 7.12502
lthumb 27.721 60.836
rfemur -102.348 -27.8121 42.5077
rtibia 83.583
rfoot -20.9883 13.0141
rtoes -15.7191
lfemur -100.259 9.07684 -33.9854
ltibia 78.7472
lfoot -15.7506 -21.8211
ltoes 1.90225
351
root -0.975474 14.9323 0.443685 216.958 68.9359 174.024
lowerback 34.9181 0.509999 -5.7609
upperback 8.74918 -0.43868 -4.15023
thorax -7.89466 0.394437 -1.24723
lowerneck -21.5172 6.34868 4.83217
upperneck 6.91451 9.1249 -13.4159
head 6.48617 3.57295 -4.02105
rclavicle -3.26007e-014 6.64935e-014
rhumerus 54.8427 11.8427 -72.8172
rradius 42.52
rwrist -49.0943
rhand -2.55438 3.79908
rfingers 7.12502
rthumb 23.1416 -24.831
lclavicle -3.26007e-014 6.64935e-014
lhumerus 33.7209 -6.19799 56.7985
lradius 58.5857
lwrist 77.4821
lhand 2.42528 32.353
lfingers 7.12502
lthumb 27.9112 60.2988
rfemur -101.525 -27.6809 42.3683
rtibia 82.4714
rfoot -20.7583 13.096
rtoes -15.1452
lfemur -99.5722 9.21542 -33.9664
ltibia 77.8644
lfoot -15.636 -21.639
ltoes 1.65415
352
root -0.990896 15.0121 0.43384 217.072 69.2338 174.371
lowerback 34.5755 0.493146 -5.7768
upperback 8.67823 -0.462925 -4.06011
thorax -7.846 0.369931 -1.12841
lowerneck -21.6266 6.38449 4.78293
upperneck 7.36147 9.2095 -13.3106
head 6.64649 3.59164 -3.96617
rclavicle -3.65764e-014 -1.99779e-014
rhumerus 53.9131 12.1708 -72.8026
rradius 43.0715
rwrist -49.5849
rhand -2.68636 3.72259
rfingers 7.12502
rthumb 23.0149 -24.9233
lclavicle -3.65764e-014 -1.99779e-014
lhumerus 32.9626 -6.45185 56.7939
lradius 58.9514
lwrist 77.6397
lhand 2.61945 32.2597
lfingers 7.12502
lthumb 28.0969 60.1752
rfemur -100.58 -27.5951 42.3365
rtibia 81.3062
rfoot -20.576 13.3556
rtoes -14.0848
lfemur -98.7892 9.43568 -33.8616
ltibia 76.9834
lfoot -15.41 -21.5059
ltoes 1.94201
353
root -1.00448 15.0993 0.422568 216.746 69.5903 174.343
lowerback 34.3696 0.502279 -5.97246
upperback 8.60175 -0.517013 -3.94267
thorax -7.84448 0.336243 -0.878676
lowerneck -21.6852 6.46867 4.62821
upperneck 7.70724 9.37688 -13.1836
head 6.76799 3.65586 -3.87613
rclavicle -2.38542e-015 6.91771e-014
rhumerus 52.9734 12.5246 -72.7588
rradius 43.6162
rwrist -49.8488
rhand -2.63092 3.68568
rfingers 7.12502
rthumb 23.0681 -24.9536
lclavicle -2.38542e-015 6.91771e-014
lhumerus 32.1471 -6.54106 57.0535
lradius 59.1152
lwrist 77.6055
lhand 2.99752 32.2706
lfingers 7.12502
lthumb 28.4582 60.1263
rfemur -99.5453 -27.6332 42.1322
rtibia 80.1185
rfoot -20.3089 13.6975
rtoes -12.8931
lfemur -97.8223 9.5864 -33.822
ltibia 76.0726
lfoot -15.2216 -21.3114
ltoes 2.18434
354
root -1.01574 15.1853 0.414015 216.463 69.9866 174.393
lowerback 34.1942 0.801293 -6.31705
upperback 8.50981 -0.254051 -3.66236
thorax -7.87016 0.446206 -0.494744
lowerneck -21.5161 6.43666 4.66208
upperneck 7.90589 9.37811 -13.3712
head 6.81952 3.63918 -3.9455
rclavicle -6.36111e-015 6.25178e-014
rhumerus 51.9072 12.4671 -72.3304
rradius 44.1051
rwrist -50.1306
rhand -2.69445 3.74453
rfingers 7.12502
rthumb 23.0072 -24.9023
lclavicle -6.36111e-015 6.25178e-014
lhumerus 31.6203 -7.22899 57.5263
lradius 59.2184
lwrist 77.2241
lhand 3.3879 31.7695
lfingers 7.12502
lthumb 28.8312 59.5622
rfemur -98.4479 -27.5569 41.8838
rtibia 78.942
rfoot -20.1679 13.6686
rtoes -13.2864
lfemur -96.8484 9.83245 -33.7816
ltibia 75.1751
lfoot -15.0749 -21.1828
ltoes 2.30739
355
root -1.02765 15.2661 0.406668 216.326 70.2595 174.523
lowerback 33.817 0.745918 -6.38793
upperback 8.5001 -0.323893 -3.56372
thorax -7.73537 0.402242 -0.320585
lowerneck -21.5611 6.54604 4.54267
upperneck 8.14008 9.57495 -13.3328
head 6.9132 3.71799 -3.8858
rclavicle 1.70955e-014 6.6891e-014
rhumerus 51.104 12.8092 -72.3021
rradius 44.5506
rwrist -50.3485
rhand -2.73116 3.79527
rfingers 7.12502
rthumb 22.972 -24.856
lclavicle 1.70955e-014 6.6891e-014
lhumerus 30.8955 -7.56207 57.5033
lradius 59.5953
lwrist 77.1563
lhand 2.82062 31.4866
lfingers 7.12502
lthumb 28.2891 59.3704
rfemur -97.4508 -27.4971 41.7254
rtibia 77.807
rfoot -19.9737 13.6631
rtoes -12.967
lfemur -96.0002 10.0248 -33.735
ltibia 74.28
lfoot -14.9462 -21.0607
ltoes 1.85254
356
root -1.04069 15.3382 0.393291 216.101 70.4774 174.495
lowerback 33.3575 0.607533 -5.93965
upperback 8.52401 -0.346641 -3.84451
thorax -7.55637 0.385227 -0.834909
lowerneck -21.6497 6.58922 5.06803
upperneck 8.44175 9.50753 -13.3244
head 7.04167 3.68293 -3.97691
rclavicle 2.54444e-014 -5.11871e-014
rhumerus 50.0356 12.4386 -73.0289
rradius 44.9004
rwrist -50.1882
rhand -2.63286 3.82346
rfingers 7.12502
rthumb 23.0663 -24.816
lclavicle 2.54444e-014 -5.11871e-014
lhumerus 30.6113 -8.3474 57.1397
lradius 59.8908
lwrist 77.1714
lhand 2.2104 32.162
lfingers 7.12502
lthumb 27.7058 60.141
rfemur -96.6153 -27.5347 41.6101
rtibia 76.6994
rfoot -19.6848 13.7882
rtoes -12.7066
lfemur -95.2246 10.0612 -33.7152
ltibia 73.3792
lfoot -14.6874 -20.8727
ltoes 1.96762
357
root -1.05193 15.4077 0.376791 215.972 70.8104 174.576
lowerback 32.8936 0.513626 -5.89075
upperback 8.51153 -0.431666 -3.84282
thorax -7.3945 0.333604 -0.820331
lowerneck -21.7428 6.71832 5.0143
upperneck 8.70349 9.70841 -13.2526
head 7.15387 3.76535 -3.91504
rclavicle -1.2762e-013 -7.93151e-014
rhumerus 49.0986 12.6389 -73.3397
rradius 45.3869
rwrist -50.1023
rhand -2.49776 3.70456
rfingers 7.12502
rthumb 23.1959 -24.9187
lclavicle -1.2762e-013 -7.93151e-014
lhumerus 30.0109 -8.53687 57.209
lradius 59.9047
lwrist 76.8365
lhand 3.08953 31.4108
lfingers 7.12502
lthumb 28.5461 59.2517
rfemur -95.7731 -27.4922 41.4757
rtibia 75.5892
rfoot -19.4589 13.8654
rtoes -12.8717
lfemur -94.4266 10.1356 -33.6449
ltibia 72.4802
lfoot -14.4282 -20.6155
ltoes 2.37727
358
root -1.06379 15.4866 0.363933 215.661 71.1412 174.525
lowerback 32.1448 0.430764 -5.81837
upperback 8.9284 -0.456047 -3.84348
thorax -7.32871 0.292315 -0.868701
lowerneck -21.8093 6.84743 5.09783
upperneck 8.99948 9.89382 -13.2926
head 7.28573 3.83527 -3.91448
rclavicle -3.65764e-014 3.69739e-014
rhumerus 48.2057 12.8663 -73.2093
rradius 45.9838
rwrist -50.3487
rhand -2.55355 3.77488
rfingers 7.12502
rthumb 23.1424 -24.8551
lclavicle -3.65764e-014 3.69739e-014
lhumerus 29.4238 -8.85254 57.2638
lradius 60.0243
lwrist 76.7497
lhand 3.39941 31.168
lfingers 7.12502
lthumb 28.8422 58.9588
rfemur -94.8515 -27.481 41.2641
rtibia 74.476
rfoot -19.1826 13.945
rtoes -12.3596
lfemur -93.51 10.258 -33.6415
ltibia 71.5725
lfoot -14.3093 -20.3415
ltoes 2.2426
